<?xml version="1.0" standalone="no"?>
<!DOCTYPE svg PUBLIC "-//W3C//DTD SVG 20010904//EN"
 "http://www.w3.org/TR/2001/REC-SVG-20010904/DTD/svg10.dtd">
<svg version="1.0" xmlns="http://www.w3.org/2000/svg"
 width="300.000000pt" height="300.000000pt" viewBox="0 0 300.000000 300.000000"
 preserveAspectRatio="xMidYMid meet">

<g transform="translate(0.000000,300.000000) scale(0.100000,-0.100000)"
fill="#000000" stroke="none">
<path d="M1562 1831 c-7 -4 -12 -21 -10 -37 3 -29 2 -29 -57 -35 -33 -4 -87
-7 -120 -8 -70 -1 -105 -20 -105 -57 0 -35 21 -39 85 -15 118 44 332 44 482 0
l76 -23 24 28 c39 46 27 51 -179 69 l-133 12 -1 29 c-1 38 -32 57 -62 37z"/>
<path d="M2365 1808 c-2 -7 -5 -26 -7 -43 -2 -22 -9 -31 -28 -35 -24 -6 -25
-9 -28 -90 -4 -114 1 -130 38 -130 17 0 30 -4 30 -10 0 -18 -39 -30 -98 -30
-32 0 -94 -3 -136 -7 -67 -5 -80 -9 -93 -30 -15 -22 -15 -26 0 -40 14 -15 22
-14 84 6 43 14 98 23 148 24 l80 2 5 -82 c9 -140 51 -140 60 0 l5 82 52 -1
c29 -1 89 -14 132 -29 76 -27 81 -27 105 -11 14 9 26 25 26 35 0 15 -12 21
-65 30 -36 7 -102 14 -148 18 -83 6 -117 16 -117 33 0 6 10 10 23 10 43 0 54
20 61 109 7 93 0 111 -45 111 -34 0 -44 13 -29 39 5 11 7 27 4 35 -7 19 -53
21 -59 4z m64 -127 c22 -14 3 -31 -34 -31 -19 0 -37 5 -41 11 -8 14 14 29 41
29 11 0 26 -4 34 -9z m-5 -77 c43 -17 -7 -54 -53 -39 -28 9 -27 33 2 38 12 2
25 5 29 6 3 0 13 -2 22 -5z"/>
<path d="M233 1784 c-3 -9 21 -75 56 -152 l61 -137 0 -152 c0 -140 2 -153 19
-163 31 -16 263 -13 287 4 17 13 19 31 24 188 l5 173 48 115 c26 63 47 120 47
127 0 8 -14 13 -39 13 l-39 0 -37 -111 c-21 -61 -41 -107 -45 -102 -4 4 -22
48 -39 98 -18 49 -37 95 -43 102 -8 10 -50 13 -155 13 -122 0 -145 -2 -150
-16z"/>
<path d="M2552 1737 c-47 -48 -52 -69 -21 -91 l21 -14 -22 -22 c-13 -13 -20
-31 -18 -46 2 -21 13 -29 57 -45 50 -17 57 -17 78 -3 39 25 50 61 30 96 -15
26 -15 32 -3 50 17 24 12 45 -20 76 -13 13 -24 27 -24 32 0 23 -39 7 -78 -33z
m68 -33 c11 -12 10 -18 -3 -31 -22 -23 -52 0 -36 28 12 23 22 24 39 3z m10
-123 c0 -22 -21 -33 -40 -21 -18 11 -4 40 20 40 13 0 20 -7 20 -19z"/>
<path d="M2136 1727 c-25 -24 -46 -48 -46 -54 0 -15 28 -43 43 -43 6 0 -2 -13
-17 -29 -39 -41 -31 -62 31 -85 68 -24 100 -16 119 30 13 31 13 38 -3 64 -13
23 -15 32 -5 42 20 20 14 56 -13 74 -14 9 -25 23 -25 30 0 27 -38 14 -84 -29z
m74 -32 c16 -19 4 -35 -26 -35 -17 0 -24 6 -24 18 0 34 28 43 50 17z m4 -111
c10 -27 7 -34 -17 -34 -33 0 -40 10 -20 32 20 22 29 23 37 2z"/>
<path d="M865 1696 c-67 -41 -106 -128 -106 -242 0 -39 4 -89 10 -111 45 -165
218 -208 306 -75 34 52 58 170 50 245 -9 74 -50 156 -94 184 -46 31 -113 31
-166 -1z m112 -148 c23 -45 23 -166 -1 -202 -22 -35 -42 -33 -63 7 -35 67 -13
227 32 227 8 0 22 -15 32 -32z"/>
<path d="M1520 1691 l-65 -6 -3 -42 c-6 -78 0 -81 143 -78 70 2 129 5 131 8
13 12 22 82 14 97 -6 11 -28 20 -56 24 -49 6 -59 6 -164 -3z m155 -52 c10 -15
7 -16 -82 -21 -76 -4 -83 -3 -83 14 0 16 9 18 79 18 46 0 83 -5 86 -11z"/>
<path d="M1455 1538 c-26 -15 -34 -28 -28 -45 7 -17 38 -17 110 2 31 8 70 15
86 15 25 0 28 -2 17 -15 -9 -11 -22 -14 -42 -10 -34 8 -64 -11 -48 -30 11 -14
-34 -25 -105 -25 -55 0 -82 -9 -90 -28 -9 -23 24 -44 56 -37 59 13 175 22 183
14 17 -15 -13 -60 -51 -76 -36 -14 -52 -14 -145 3 l-38 7 11 -32 c25 -70 142
-81 226 -21 19 14 43 56 57 103 6 20 36 22 120 6 62 -11 86 -3 86 31 0 23 -28
30 -117 30 -40 0 -73 4 -73 9 0 5 14 19 30 31 34 24 39 55 11 70 -27 14 -231
12 -256 -2z"/>
<path d="M2203 1358 c-59 -32 -73 -44 -73 -63 0 -31 31 -40 68 -21 36 18 104
94 99 109 -6 20 -21 16 -94 -25z"/>
<path d="M2486 1393 c-25 -25 71 -133 118 -133 32 0 47 39 21 55 -10 5 -43 27
-75 47 -32 20 -61 34 -64 31z"/>
</g>
</svg>
